<?xml version="1.0" encoding="UTF-8"?>
<svg id="Layer_1" data-name="Layer 1" xmlns="http://www.w3.org/2000/svg" viewBox="0 0 295 311">
  <defs>
    <style>
      .cls-1 {
        fill: #fff;
      }
    </style>
  </defs>
  <path class="cls-1" d="M198.95.34c-24.2,6.17-40.61,20.35-53.55,41.31-18.29,29.63-8.79,61.79-22.24,94.28-11.99,28.98-25.16,36.97-44.3,58.54-25.51,28.74-31.18,46.03,17.06,34.42,4.99,28.84,19.33,17.07,37.56,9.31,4.16.79,5.04,7.54,6.47,8.35,10.93,6.22,24.66-13.69,35.56-15.17,8.93-1.22,10.64,14.57,28.06,10.06,40.22-10.42,79.07-76.29,86.27-114.9,8.9-47.73-9.27-118.49-65.73-126.19h70.89v310.66H0v-47.97c14.97,18.91,45.59,4.68,45.93-17.12.45-28.42-42.23-15.97-45.93,5.7V.34h198.95ZM173.2,252.01c-20.62,4.11-13.14,38.34,9.64,23.47,13.59-8.87,8.12-27.01-9.64-23.47ZM84,270.4c-20.89,4.27-27.77,35.4-4.9,38.27,30.33,3.8,42.01-45.85,4.9-38.27Z"/>
  <path d="M224.11.34c56.45,7.69,74.62,78.46,65.73,126.19-7.2,38.61-46.04,104.48-86.27,114.9-17.42,4.51-19.13-11.28-28.06-10.06-10.9,1.48-24.63,21.4-35.56,15.17-1.43-.82-2.32-7.56-6.47-8.35-18.23,7.76-32.57,19.53-37.56-9.31-48.24,11.62-42.57-5.67-17.06-34.42,19.14-21.57,32.31-29.57,44.3-58.54,13.45-32.49,3.95-64.65,22.24-94.28C158.34,20.69,174.76,6.51,198.95.34c7.99.75,17.44-1.05,25.16,0ZM250.76,21.69c-43.68-37.94-102.09,8.82-108.7,57.74-6.16,45.57-4.2,63.63-35.69,101.4-3.99,4.79-42.14,39.44-37.75,43.36,27.39-.47,50.9-18.59,70.07-36.33l7.63,5.51c-12.2,11.55-24.19,23.39-40.75,28.9l-.37,13.36c21.52,1.02,36.54-15.64,53.69-25.15,12.47,7.77-20.24,20.2-14.8,25.13,12.17.69,21.63-13.79,33.15-13.82,11.37-.03,14.52,12.33,22.31,11.23,4.28-.6,16.42-8.57,20.75-11.49,59.14-39.83,90.37-147.81,30.47-199.84Z"/>
  <path d="M0,251.61c3.71-21.67,46.38-34.12,45.93-5.7-.34,21.81-30.96,36.03-45.93,17.12v-11.42ZM36.3,240.49c-9.23-14.46-44.58,24.56-17.02,22.48,9.57-.72,22.65-13.66,17.02-22.48Z"/>
  <path d="M84,270.4c37.11-7.58,25.43,42.07-4.9,38.27-22.87-2.87-15.99-34,4.9-38.27ZM83.95,279.5c-7.93,2.34-15.39,18.83-2.67,20.14,15.27,1.58,26.25-27.09,2.67-20.14Z"/>
  <path d="M173.2,252.01c17.76-3.54,23.22,14.6,9.64,23.47-22.78,14.87-30.26-19.36-9.64-23.47Z"/>
  <path class="cls-1" d="M250.76,21.69c59.9,52.03,28.67,160-30.47,199.84-4.34,2.92-16.47,10.89-20.75,11.49-7.79,1.1-10.94-11.26-22.31-11.23-11.52.03-20.97,14.51-33.15,13.82-5.44-4.93,27.27-17.35,14.8-25.13-17.15,9.51-32.17,26.17-53.69,25.15l.37-13.36c16.56-5.52,28.56-17.36,40.75-28.9l-7.63-5.51c-19.16,17.75-42.68,35.87-70.07,36.33-4.38-3.92,33.76-38.57,37.75-43.36,31.5-37.77,29.53-55.84,35.69-101.4,6.61-48.91,65.02-95.68,108.7-57.74ZM206.4,80.91c-17.24,15.47,10.84,57.01,21.24,22.32,4.49-14.96-9.21-33.12-21.24-22.32ZM252.14,80.91c-17.24,15.47,10.84,57.01,21.24,22.32,4.49-14.96-9.21-33.12-21.24-22.32Z"/>
  <path class="cls-1" d="M36.3,240.49c5.63,8.82-7.45,21.75-17.02,22.48-27.57,2.08,7.79-36.94,17.02-22.48Z"/>
  <path class="cls-1" d="M83.95,279.5c23.58-6.95,12.6,21.72-2.67,20.14-12.72-1.31-5.26-17.8,2.67-20.14Z"/>
  <path d="M206.4,80.91c12.03-10.8,25.73,7.36,21.24,22.32-10.4,34.69-38.48-6.86-21.24-22.32Z"/>
  <path d="M252.14,80.91c12.03-10.8,25.73,7.36,21.24,22.32-10.4,34.69-38.48-6.86-21.24-22.32Z"/>
</svg>